inDegrees=no
num_controls=7
num_derivatives=13
num_iterations=119
num_multipliers=7
num_parameters=0
num_slacks=7
num_states=26
objective=5.285353
objective_accelerations=0.789445
objective_balance=0.023865
objective_effort=0.246224
objective_height=4.126646
objective_ligament=0.099174
solver_duration=1307.376283
status=Solve_Succeeded
success=true
DataType=double
version=3
OpenSimVersion=4.4-2022-07-23-0e9fedc
endheader
time	/jointset/ground_pelvis/pelvis_tilt/value	/jointset/ground_pelvis/pelvis_tx/value	/jointset/ground_pelvis/pelvis_ty/value	/jointset/hip_l/hip_flexion_l/value	/jointset/hip_l/hip_adduction_l/value	/jointset/hip_l/hip_rotation_l/value	/jointset/back/lumbar_extension/value	/jointset/patellofemoral_l/patellar_flexion_l/value	/jointset/knee_l/knee_flexion_l/value	/jointset/knee_l/knee_adduction_l/value	/jointset/knee_l/knee_rotation_l/value	/jointset/ankle_l/ankle_angle_l/value	/jointset/subtalar_l/subtalar_angle_l/value	/jointset/ground_pelvis/pelvis_tilt/speed	/jointset/ground_pelvis/pelvis_tx/speed	/jointset/ground_pelvis/pelvis_ty/speed	/jointset/hip_l/hip_flexion_l/speed	/jointset/hip_l/hip_adduction_l/speed	/jointset/hip_l/hip_rotation_l/speed	/jointset/back/lumbar_extension/speed	/jointset/patellofemoral_l/patellar_flexion_l/speed	/jointset/knee_l/knee_flexion_l/speed	/jointset/knee_l/knee_adduction_l/speed	/jointset/knee_l/knee_rotation_l/speed	/jointset/ankle_l/ankle_angle_l/speed	/jointset/subtalar_l/subtalar_angle_l/speed	/forceset/tau_hip_flexion_l	/forceset/tau_hip_adduction_l	/forceset/tau_hip_rotation_l	/forceset/tau_knee_flexion_l	/forceset/tau_ankle_angle_l	/forceset/tau_subtalar_angle_l	/forceset/tau_lumbar_extension	lambda_cid13_p0	lambda_cid13_p1	lambda_cid13_p2	lambda_cid13_p3	lambda_cid13_p4	lambda_cid13_p5	lambda_cid14_p0	/jointset/ground_pelvis/pelvis_tilt/accel	/jointset/ground_pelvis/pelvis_tx/accel	/jointset/ground_pelvis/pelvis_ty/accel	/jointset/hip_l/hip_flexion_l/accel	/jointset/hip_l/hip_adduction_l/accel	/jointset/hip_l/hip_rotation_l/accel	/jointset/back/lumbar_extension/accel	/jointset/patellofemoral_l/patellar_flexion_l/accel	/jointset/knee_l/knee_flexion_l/accel	/jointset/knee_l/knee_adduction_l/accel	/jointset/knee_l/knee_rotation_l/accel	/jointset/ankle_l/ankle_angle_l/accel	/jointset/subtalar_l/subtalar_angle_l/accel	gamma_cid13_p0	gamma_cid13_p1	gamma_cid13_p2	gamma_cid13_p3	gamma_cid13_p4	gamma_cid13_p5	gamma_cid14_p0
1.5	-0.5858820079529036	-0.05456707252051594	0.774241536610624	1.294635658479938	-0.3487155445231353	-0.09553563587538162	-0.3507583168613344	0.6296539995555412	0.6296539995554955	-0.05358761245106053	-0.1744018967163214	0.02051875890757529	0.07920171048546965	1.137494903064101	0.5211535225720694	0.5466058773679258	-3.048658150994668	-0.01887444373756309	-0.5583399380457807	0.5930527985824137	-1.706722196563624	-1.706722196563213	-0.23991463426803	0.005718161759871222	0.08114040168748055	0.01136585121485496	-0.2137276720786168	0.01103206618454299	0.006565838413219002	-0.07145961914781523	0.03970182578437494	0.01640145309498381	0.1724755726722697	-10.58521368773288	-6.992666609224207	2.801789437813218	-8.539646044569414	-428.2846249324394	-63.88040501659697	-17.91661791109661	0.9670572420465974	0.9827684713367394	-0.6873659401015704	-1.955728521820765	0.30818128494608	-0.283198652090011	2.038527741569059	-0.7250169171198673	-0.7250169171197798	-0.3587708883782658	0.2277287619686198	0.1984419317673265	0.3796086999562294	1.102400714842342e-09	1.942868362647621e-06	3.091066838200395e-07	3.95112314845063e-07	3.279597881287634e-07	-2.693100087829807e-07	3.027274379043657e-07
1.51	-0.5744593858099817	-0.0493070624513743	0.7796720745678564	1.264053978585603	-0.3488901098237145	-0.1011352215812612	-0.3447283347028683	0.6125526291530127	0.6125526291530734	-0.05600569824460378	-0.1743364996211341	0.02133980314127796	0.07933303071237069	1.14683961342586	0.530765532712531	0.5393762024234329	-3.067233908035438	-0.01602968379442453	-0.5614831169486078	0.6128241668238631	-1.713317590662649	-1.713317590662285	-0.2436931701654301	0.00740698075897995	0.08306575433133678	0.01490635401779761	-0.2062056257527522	0.01067102978023916	0.007075082269193889	-0.06953275526359733	0.03593566860496118	0.01528193200112402	0.1668571449915334	-11.61903729741433	-6.556509137354325	2.99618629519207	-7.58477996967561	-423.6379488346002	-63.37514379340478	-18.55864244581558	0.8897222543019566	0.9380509209756914	-0.7595196547039205	-1.741874692668098	0.2736090498502105	-0.3155278411202187	1.928521422937477	-0.5917205456555987	-0.5917205456623654	-0.385594844748338	0.1462566834202122	0.1892431277008326	0.342162573351356	5.974742658887422e-09	1.970234263786041e-06	2.134918769321484e-07	3.898187131133952e-07	3.602121905319582e-07	-2.418545402417173e-07	3.137323900780972e-07
1.52	-0.5629490076992525	-0.04395340555371223	0.7850265654990261	1.233299866041323	-0.3490360303847065	-0.1067633691425221	-0.3385042228504974	0.5953923208317093	0.5953923208317277	-0.05846120937824967	-0.1742528546928634	0.02218003314081923	0.07949993426787839	1.155046096630083	0.5398828882761557	0.5313964721554348	-3.083144680974724	-0.01314549581715573	-0.5640523091210748	0.6318787373654805	-1.718509780336163	-1.718509780335846	-0.2473997022359376	0.009367728339612899	0.08497755485541923	0.01848251693625907	-0.1986835794272023	0.01030999337585559	0.0075843261239151	-0.06760589137939274	0.03216951142554835	0.01416241090721708	0.1612387173104817	-12.65558037455701	-6.117937821244677	3.187985334386415	-6.612300758309035	-419.0258119098941	-62.9049933534085	-19.18398597091787	0.73941181053962	0.883837555968881	-0.8373770048027088	-1.422731701523967	0.3160668917722657	-0.1684013060180645	1.895168201602793	-0.4443760320175464	-0.4443760320175449	-0.3443701229995932	0.282114478273459	0.1957315078120411	0.3867407230599046	8.315410217313589e-09	2.012782407872038e-06	1.419793206452578e-07	3.889342160534721e-07	3.878420508058339e-07	-2.128103427966692e-07	3.239718002669174e-07
1.53	-0.551362337655021	-0.03851105589026426	0.7902976243791699	1.20239991788756	-0.3491528901323704	-0.1124148549615628	-0.3320931105683213	0.5781870990454039	0.5781870990453958	-0.06095314158881336	-0.1741486432536667	0.02303943038851819	0.07970284119721179	1.162081125079251	0.5485022519620975	0.5227003162681776	-3.096388574092236	-0.01021150502644884	-0.5661943074073305	0.6502359062754856	-1.722295558629375	-1.722295558628984	-0.2509344788544516	0.01148671228346429	0.08691228333235962	0.02211783965156687	-0.1912308373262191	0.009797813539416793	0.008023135033840001	-0.066017182804977	0.02904823803083053	0.01287546529993569	0.1556788275628019	-13.50943553373401	-5.619575503951613	3.348473911157774	-5.834802491777888	-414.7478426428929	-62.37640050243763	-19.78922825519478	0.6545608240725223	0.838345859894301	-0.9028984770670828	-1.206725090698035	0.2839438742942785	-0.2292683640269192	1.789819316915588	-0.3098936723036177	-0.3098936722923392	-0.3497826090995613	0.1785324714763184	0.19396756400398	0.3544337492510305	7.966173741019689e-09	2.071461685089837e-06	9.607540562192986e-08	3.927343927072776e-07	4.10560460067308e-07	-1.820781208913499e-07	3.333978220967694e-07
1.54	-0.5397115148339152	-0.03298504057295835	0.7954782889811641	1.171381229407859	-0.3492400342318016	-0.1180861946183233	-0.3255016609808016	0.5609511764873086	0.5609511764872523	-0.06347877180114569	-0.1740228935511818	0.0239184997302576	0.07994260249439492	1.167876652007127	0.5566160190477443	0.5133176165255269	-3.106892746163047	-0.007202366172736952	-0.5680230766574906	0.6679461984341223	-1.72464993469583	-1.724649934695366	-0.2541393025858688	0.01367538098873174	0.08891197366404109	0.02585339050625998	-0.1837780952251948	0.009285633702858316	0.008461943943552028	-0.06442847423065001	0.0259269646360158	0.01158851969247795	0.1501189378152377	-14.36682372704447	-5.118245293233376	3.505806234001567	-5.032926925010424	-410.5127165273225	-61.88625290900016	-20.37098503441852	0.4915115062809264	0.7827182359094882	-0.9746857758814353	-0.8747874921840736	0.3310965043734014	-0.105755498798923	1.765792851329175	-0.1580955866660542	-0.1580955866660589	-0.2783795455800865	0.2960514305567005	0.208723878759786	0.4067863509368966	3.776978354240979e-08	2.014136442101402e-06	-2.045868765236168e-07	3.693983981371779e-07	4.914607980029872e-07	-1.497810943493703e-07	3.633375485502264e-07
